<svg width="144" height="135" viewBox="0 0 144 135" fill="none" xmlns="http://www.w3.org/2000/svg">
<path d="M101.388 52.3469L98.449 71.6327H83.7551V119.847H57.3061V74.3878H42.6122V52.3469H60.2449V33.0612C60.2449 33.0612 60.2449 13.7755 80.8163 13.7755H98.449V33.0612H86.6939C86.6939 33.0612 83.7551 33.0612 83.7551 35.8163C83.7551 38.5714 83.7551 52.3469 83.7551 52.3469H101.388Z" fill="white"/>
<path d="M141.061 8.2653V126.735C141.061 129.764 138.415 132.245 135.184 132.245H8.81633C5.58485 132.245 2.93877 129.764 2.93877 126.735V8.2653C2.93877 5.23441 5.58485 2.7551 8.81633 2.7551H135.184C138.415 2.7551 141.061 5.23441 141.061 8.2653ZM98.449 71.6326L101.388 52.3469H83.7551C83.7551 52.3469 83.7551 38.5714 83.7551 35.8163C83.7551 33.0612 86.6939 33.0612 86.6939 33.0612H98.449V13.7755H80.8163C60.2449 13.7755 60.2449 33.0612 60.2449 33.0612V52.3469H42.6123V74.3877H57.3061V119.847H83.7551V71.6326H98.449Z" fill="#3D5A98"/>
<path d="M135.184 0H8.81633C3.955 0 0 3.70782 0 8.26531V126.735C0 131.292 3.955 135 8.81633 135H135.184C140.045 135 144 131.292 144 126.735V8.26531C144 3.70782 140.045 0 135.184 0ZM138.122 126.735C138.122 128.254 136.804 129.49 135.184 129.49H8.81633C7.19589 129.49 5.87755 128.254 5.87755 126.735V8.26531C5.87755 6.74614 7.19589 5.5102 8.81633 5.5102H135.184C136.804 5.5102 138.122 6.74614 138.122 8.26531V126.735Z" fill="#231F20"/>
<path d="M101.388 49.5918H86.6939V35.826C86.7162 35.8218 86.7383 35.8185 86.7582 35.8163H98.449C100.072 35.8163 101.388 34.5829 101.388 33.0612V13.7755C101.388 12.2541 100.072 11.0204 98.449 11.0204H80.8163C68.6886 11.0204 62.9045 17.0924 60.1879 22.1863C57.3387 27.5279 57.3061 32.8378 57.3061 33.0612V49.5918H42.6122C40.9892 49.5918 39.6735 50.8253 39.6735 52.3469V74.3877C39.6735 75.9094 40.9892 77.1428 42.6122 77.1428H54.3673V119.847C54.3673 121.369 55.683 122.602 57.3061 122.602H83.7551C85.3782 122.602 86.6939 121.369 86.6939 119.847V74.3877H98.449C99.9116 74.3877 101.151 73.3797 101.358 72.0222L104.297 52.7365C104.417 51.9458 104.166 51.1452 103.608 50.5418C103.05 49.9384 102.24 49.5918 101.388 49.5918ZM95.9002 68.8775H83.7551C82.132 68.8775 80.8163 70.111 80.8163 71.6326V117.092H60.2449V74.3877C60.2449 72.8664 58.9292 71.6326 57.3061 71.6326H45.551V55.102H60.2449C61.868 55.102 63.1837 53.8686 63.1837 52.3469V33.0698C63.184 33.0262 63.2392 28.6836 65.5279 24.4962C68.4176 19.2108 73.5614 16.5306 80.8163 16.5306H95.5102V30.3061H86.6939C83.8447 30.3061 80.8163 32.2372 80.8163 35.8163V52.3469C80.8163 53.8686 82.132 55.102 83.7551 55.102H97.9994L95.9002 68.8775Z" fill="#231F20"/>
</svg>
