<svg width="168" height="155" viewBox="0 0 168 155" fill="none" xmlns="http://www.w3.org/2000/svg">
<g clip-path="url(#clip0_2_35)">
<path d="M0 21.3161V120.206C0 129.325 7.34081 136.687 16.4348 136.687H151.565C160.659 136.687 168 129.325 168 120.206V21.3161C168 21.0233 168 20.7301 167.964 20.4372C167.525 12.0133 160.842 5.31069 152.442 4.87139C152.15 4.83487 151.858 4.83487 151.566 4.83487H16.4351C16.1431 4.83487 15.8143 4.83487 15.522 4.87139C7.15837 5.31102 0.475125 12.0133 0.0367498 20.4007C-1.61352e-07 20.6935 0 21.0233 0 21.3161Z" fill="#E6F3FF"/>
<path d="M15.5216 4.87106C15.8143 4.83453 16.1421 4.83453 16.4348 4.83453H84V136.687H16.4348C7.34081 136.687 0 129.325 0 120.206V21.3161C0 21.0233 -2.48384e-06 20.6935 0.0364194 20.4003C0.474794 12.0133 7.15837 5.31068 15.5216 4.87106Z" fill="#CFDBE6"/>
<path d="M0.0364194 20.4007C0.474794 12.0133 7.15804 5.31102 15.5216 4.87139C42.3642 31.7901 57.438 46.9071 84 73.5444C94.0764 63.4334 142.534 14.807 152.442 4.87106C160.842 5.31069 167.525 12.013 167.963 20.4369C168 20.7301 168 21.0233 168 21.3161V120.206C168 129.325 160.659 136.687 151.565 136.687H146.087V42.3759L91.7424 96.8385C89.6241 98.9994 86.812 100.062 83.9997 100.062C81.1876 100.062 78.3753 98.9994 76.2569 96.8385L21.9125 42.3394V136.687H16.4341C7.34015 136.687 -0.000660896 129.325 -0.000660896 120.206V21.3161C-4.64627e-06 21.0233 -2.48384e-06 20.6935 0.0364194 20.4007Z" fill="#FF4B26"/>
<path d="M76.2576 96.8385L21.9132 42.3394V136.687H16.4348C7.34081 136.687 0 129.325 0 120.206V21.3161C0 21.0233 -2.48384e-06 20.6935 0.0364194 20.4004C0.474794 12.013 7.15804 5.31069 15.5216 4.87106C42.3639 31.7901 57.438 46.9071 84 73.5444V100.061C81.188 100.061 78.3756 98.9994 76.2576 96.8385Z" fill="#D93F21"/>
</g>
<defs>
<clipPath id="clip0_2_35">
<rect width="168" height="155" fill="white" transform="matrix(-1 0 0 1 168 0)"/>
</clipPath>
</defs>
</svg>
