<svg width="219" height="38" viewBox="0 0 219 38" fill="none" xmlns="http://www.w3.org/2000/svg">
<path d="M0.0340909 2.09091H9.13636L18.75 25.5455H19.1591L28.7727 2.09091H37.875V37H30.7159V14.2784H30.4261L21.392 36.8295H16.517L7.48295 14.1932H7.19318V37H0.0340909V2.09091ZM55.7514 37.5114C53.0582 37.5114 50.7401 36.9659 48.7969 35.875C46.8651 34.7727 45.3764 33.2159 44.331 31.2045C43.2855 29.1818 42.7628 26.7898 42.7628 24.0284C42.7628 21.3352 43.2855 18.9716 44.331 16.9375C45.3764 14.9034 46.848 13.3182 48.7457 12.1818C50.6548 11.0455 52.8935 10.4773 55.4616 10.4773C57.1889 10.4773 58.7969 10.7557 60.2855 11.3125C61.7855 11.858 63.0923 12.6818 64.206 13.7841C65.331 14.8864 66.206 16.2727 66.831 17.9432C67.456 19.6023 67.7685 21.5455 67.7685 23.7727V25.767H45.6605V21.267H60.9332C60.9332 20.2216 60.706 19.2955 60.2514 18.4886C59.7969 17.6818 59.1662 17.0511 58.3594 16.5966C57.5639 16.1307 56.6378 15.8977 55.581 15.8977C54.4787 15.8977 53.5014 16.1534 52.6491 16.6648C51.8082 17.1648 51.1491 17.8409 50.6719 18.6932C50.1946 19.5341 49.9503 20.4716 49.9389 21.5057V25.7841C49.9389 27.0795 50.1776 28.1989 50.6548 29.142C51.1435 30.0852 51.831 30.8125 52.7173 31.3239C53.6037 31.8352 54.6548 32.0909 55.8707 32.0909C56.6776 32.0909 57.4162 31.9773 58.0866 31.75C58.7571 31.5227 59.331 31.1818 59.8082 30.7273C60.2855 30.2727 60.6491 29.7159 60.8991 29.0568L67.6151 29.5C67.2741 31.1136 66.5753 32.5227 65.5185 33.7273C64.473 34.9205 63.1207 35.8523 61.4616 36.5227C59.8139 37.1818 57.9105 37.5114 55.7514 37.5114ZM84.3366 37.5114C81.6889 37.5114 79.3991 36.9489 77.4673 35.8239C75.5469 34.6875 74.0639 33.108 73.0185 31.0852C71.973 29.0511 71.4503 26.6932 71.4503 24.0114C71.4503 21.3068 71.973 18.9432 73.0185 16.9205C74.0639 14.8864 75.5469 13.3068 77.4673 12.1818C79.3991 11.0455 81.6889 10.4773 84.3366 10.4773C86.9844 10.4773 89.2685 11.0455 91.1889 12.1818C93.1207 13.3068 94.6094 14.8864 95.6548 16.9205C96.7003 18.9432 97.223 21.3068 97.223 24.0114C97.223 26.6932 96.7003 29.0511 95.6548 31.0852C94.6094 33.108 93.1207 34.6875 91.1889 35.8239C89.2685 36.9489 86.9844 37.5114 84.3366 37.5114ZM84.3707 31.8864C85.5753 31.8864 86.581 31.5455 87.3878 30.8636C88.1946 30.1705 88.8026 29.2273 89.2116 28.0341C89.6321 26.8409 89.8423 25.483 89.8423 23.9602C89.8423 22.4375 89.6321 21.0795 89.2116 19.8864C88.8026 18.6932 88.1946 17.75 87.3878 17.0568C86.581 16.3636 85.5753 16.017 84.3707 16.017C83.1548 16.017 82.1321 16.3636 81.3026 17.0568C80.4844 17.75 79.8651 18.6932 79.4446 19.8864C79.0355 21.0795 78.831 22.4375 78.831 23.9602C78.831 25.483 79.0355 26.8409 79.4446 28.0341C79.8651 29.2273 80.4844 30.1705 81.3026 30.8636C82.1321 31.5455 83.1548 31.8864 84.3707 31.8864ZM106.453 37L99.3281 10.8182H106.675L110.732 28.4091H110.97L115.197 10.8182H122.408L126.703 28.3068H126.925L130.913 10.8182H138.243L131.135 37H123.447L118.947 20.5341H118.624L114.124 37H106.453ZM148.696 29.4659L148.713 20.7557H149.77L158.156 10.8182H166.491L155.224 23.9773H153.503L148.696 29.4659ZM142.116 37V2.09091H149.378V37H142.116ZM158.48 37L150.776 25.5966L155.616 20.4659L166.986 37H158.48ZM170.054 37V10.8182H177.315V37H170.054ZM173.702 7.44318C172.622 7.44318 171.696 7.08523 170.923 6.36932C170.162 5.64204 169.781 4.77273 169.781 3.76136C169.781 2.76136 170.162 1.90341 170.923 1.1875C171.696 0.460226 172.622 0.0965891 173.702 0.0965891C174.781 0.0965891 175.702 0.460226 176.463 1.1875C177.236 1.90341 177.622 2.76136 177.622 3.76136C177.622 4.77273 177.236 5.64204 176.463 6.36932C175.702 7.08523 174.781 7.44318 173.702 7.44318ZM189.712 29.4659L189.729 20.7557H190.786L199.172 10.8182H207.507L196.24 23.9773H194.518L189.712 29.4659ZM183.132 37V2.09091H190.393V37H183.132ZM199.496 37L191.791 25.5966L196.632 20.4659L208.001 37H199.496ZM211.07 37V10.8182H218.331V37H211.07ZM214.717 7.44318C213.638 7.44318 212.712 7.08523 211.939 6.36932C211.178 5.64204 210.797 4.77273 210.797 3.76136C210.797 2.76136 211.178 1.90341 211.939 1.1875C212.712 0.460226 213.638 0.0965891 214.717 0.0965891C215.797 0.0965891 216.717 0.460226 217.479 1.1875C218.251 1.90341 218.638 2.76136 218.638 3.76136C218.638 4.77273 218.251 5.64204 217.479 6.36932C216.717 7.08523 215.797 7.44318 214.717 7.44318Z" fill="black"/>
</svg>
