<svg width="176" height="176" viewBox="0 0 176 176" fill="none" xmlns="http://www.w3.org/2000/svg">
<path d="M172.408 68.3265V117.673C172.408 138.625 156.315 155.633 136.49 155.633H39.5102C19.6851 155.633 3.59184 138.625 3.59184 117.673V68.3265C3.59184 47.3734 19.6851 30.3673 39.5102 30.3673H136.49C156.315 30.3673 172.408 47.3734 172.408 68.3265Z" fill="#EA4640"/>
<path d="M114.939 93L71.8367 111.98V74.0204L114.939 93Z" fill="white"/>
<path d="M136.49 26.5714H39.5102C17.7243 26.5714 0 45.3028 0 68.3265V117.673C0 140.697 17.7243 159.429 39.5102 159.429H136.49C158.276 159.429 176 140.697 176 117.673V68.3265C176 45.3028 158.276 26.5714 136.49 26.5714ZM168.816 117.673C168.816 136.511 154.315 151.837 136.49 151.837H39.5102C21.6854 151.837 7.18367 136.511 7.18367 117.673V68.3265C7.18367 49.4889 21.6854 34.1633 39.5102 34.1633H136.49C154.315 34.1633 168.816 49.4889 168.816 68.3265V117.673Z" fill="#231F20"/>
<path d="M116.32 89.496L73.2182 70.5164C72.1101 70.0282 70.8436 70.1577 69.8443 70.8622C68.8451 71.566 68.2449 72.7514 68.2449 74.0204V111.98C68.2449 113.249 68.8451 114.434 69.8443 115.138C70.4431 115.56 71.1378 115.776 71.8371 115.776C72.3044 115.776 72.7738 115.679 73.2182 115.484L116.32 96.504C117.659 95.9145 118.531 94.5324 118.531 93C118.531 91.4676 117.659 90.0855 116.32 89.496ZM75.4286 106.286V79.7143L105.6 93L75.4286 106.286Z" fill="#231F20"/>
</svg>
